# xmcd CD database file
#
# Track frame offsets:
#	150
#	17485
#	34202
#	50380
#	66084
#	81384
#	99918
#	117904
#	132005
#	148314
#	167339
#	191804
#
# Disc length: 2766 seconds
#
# Revision: 0
# Processed by: cddbd v1.5.2PL0 Copyright (c) Steve Scherf et al.
# Submitted via: CDex 1.70beta2
#
DISCID=9f0acc0c
DTITLE=Sabrina Starke - Bags and Suitcases
DYEAR=2010
DGENRE=Jazz
TTITLE0=Brand New
TTITLE1=Different People
TTITLE2=Another Shade
TTITLE3=Sunny Days
TTITLE4=Can't Keep Running Away
TTITLE5=Jasmine
TTITLE6=If Morning Comes
TTITLE7=Bags and Suitcases
TTITLE8=Happy
TTITLE9=Down The Road
TTITLE10=For Love - In The Moment
TTITLE11=So Magical
EXTD=YEAR: 2010
EXTT0=
EXTT1=
EXTT2=
EXTT3=
EXTT4=
EXTT5=
EXTT6=
EXTT7=
EXTT8=
EXTT9=
EXTT10=
EXTT11=
PLAYORDER=
